<?xml version="1.0" encoding="utf-8"?>
<!-- Generator: Adobe Illustrator 17.0.0, SVG Export Plug-In . SVG Version: 6.00 Build 0)  -->
<!DOCTYPE svg PUBLIC "-//W3C//DTD SVG 1.1//EN" "http://www.w3.org/Graphics/SVG/1.1/DTD/svg11.dtd">
<svg version="1.1" id="Ebene_1" xmlns="http://www.w3.org/2000/svg" xmlns:xlink="http://www.w3.org/1999/xlink" x="0px" y="0px"
	 width="230px" height="230px" viewBox="0 0 230 230" enable-background="new 0 0 230 230" xml:space="preserve">
<g>
	<path fill="#FFFFFF" d="M136.436,69.046c-0.677,0-1.355-0.123-2.019-0.387c-2.845-1.116-4.245-4.323-3.136-7.168
		c0.774-1.974,19.408-48.409,61.597-52.629c3.103-0.29,5.762,1.923,6.058,4.955c0.303,3.045-1.916,5.755-4.955,6.058
		c-35.389,3.542-52.216,45.228-52.39,45.648C140.726,67.717,138.642,69.046,136.436,69.046z"/>
	<g>
		<path fill="#FFFFFF" d="M193.426,8.843c-0.181,0-0.368,0.006-0.555,0.026c-42.189,4.22-60.823,50.648-61.597,52.629
			c-0.019,0.052-0.006,0.103-0.026,0.161c3.607,0.923,7.136,2.032,10.53,3.42c1.832-4.323,18.672-41.835,52.196-45.183
			c3.045-0.31,5.258-3.02,4.955-6.058C198.652,10.972,196.284,8.843,193.426,8.843z"/>
		<path fill="#FFFFFF" d="M136.436,80.118c-2.071,0-4.11-0.387-6.071-1.148c-7.8-3.065-11.923-11.433-9.994-19.375
			c-3.045-0.348-6.129-0.568-9.265-0.568c-44.77,0-81.069,36.292-81.069,81.069s36.292,81.069,81.069,81.069
			s81.069-36.292,81.069-81.069c0-29.963-16.298-56.061-40.473-70.094C149.082,76.15,143.159,80.118,136.436,80.118z"/>
	</g>
</g>
</svg>
