<?xml version="1.0" encoding="utf-8"?>
<!-- Generator: Adobe Illustrator 17.0.0, SVG Export Plug-In . SVG Version: 6.00 Build 0)  -->
<!DOCTYPE svg PUBLIC "-//W3C//DTD SVG 1.1//EN" "http://www.w3.org/Graphics/SVG/1.1/DTD/svg11.dtd">
<svg version="1.1" id="Ebene_1" xmlns="http://www.w3.org/2000/svg" xmlns:xlink="http://www.w3.org/1999/xlink" x="0px" y="0px"
	 width="35px" height="35px" viewBox="3 7.5 35 35" enable-background="new 3 7.5 35 35" xml:space="preserve">
<g>
	<path fill="#FFFFFF" d="M23.9,17.878c-0.105,0-0.21-0.019-0.313-0.06c-0.441-0.173-0.658-0.67-0.486-1.111
		c0.12-0.306,3.008-7.503,9.547-8.157c0.481-0.045,0.893,0.298,0.939,0.768c0.047,0.472-0.297,0.892-0.768,0.939
		c-5.485,0.549-8.093,7.01-8.12,7.075C24.565,17.672,24.242,17.878,23.9,17.878z"/>
	<g>
		<path fill="#FFFFFF" d="M32.733,8.547c-0.028,0-0.057,0.001-0.086,0.004c-6.539,0.654-9.427,7.85-9.547,8.157
			c-0.003,0.008-0.001,0.016-0.004,0.025c0.559,0.143,1.106,0.315,1.632,0.53c0.284-0.67,2.894-6.484,8.09-7.003
			c0.472-0.048,0.815-0.468,0.768-0.939C33.543,8.877,33.176,8.547,32.733,8.547z"/>
		<path fill="#FFFFFF" d="M23.9,19.594c-0.321,0-0.637-0.06-0.941-0.178c-1.209-0.475-1.848-1.772-1.549-3.003
			c-0.472-0.054-0.95-0.088-1.436-0.088c-6.939,0-12.565,5.625-12.565,12.565s5.625,12.565,12.565,12.565
			s12.565-5.625,12.565-12.565c0-4.644-2.526-8.689-6.273-10.864C25.86,18.979,24.942,19.594,23.9,19.594z"/>
	</g>
</g>
</svg>
