<?xml version="1.0" encoding="utf-8"?>
<!-- Generator: Adobe Illustrator 17.0.0, SVG Export Plug-In . SVG Version: 6.00 Build 0)  -->
<!DOCTYPE svg PUBLIC "-//W3C//DTD SVG 1.1//EN" "http://www.w3.org/Graphics/SVG/1.1/DTD/svg11.dtd">
<svg version="1.1" id="Ebene_1" xmlns="http://www.w3.org/2000/svg" xmlns:xlink="http://www.w3.org/1999/xlink" x="0px" y="0px"
	 width="35px" height="35px" viewBox="3 7.5 35 35" enable-background="new 3 7.5 35 35" xml:space="preserve">
<g>
	<path fill="#FFFFFF" d="M19.698,11.006c0.493,0,0.986,0,1.478,0c0.103,0.021,0.204,0.051,0.307,0.061
		c0.817,0.076,1.617,0.238,2.345,0.622c1.967,1.038,2.886,2.751,2.975,4.91c0.055,1.324-0.028,2.653-0.055,3.98
		c-0.018,0.89-0.037,1.784-0.388,2.621c-0.443,1.055-0.872,2.12-1.385,3.142c-0.385,0.769-0.894,1.475-1.353,2.218
		c0.054,0.013,0.153,0.042,0.254,0.063c1.433,0.291,2.825,0.727,4.132,1.38c2.02,1.008,4.021,2.054,6.015,3.114
		c0.943,0.501,1.784,1.147,2.397,2.045c0.303,0.443,0.477,0.918,0.461,1.472c-0.025,0.899-0.006,1.8-0.008,2.699
		c0,0.113-0.009,0.226-0.014,0.334c-10.948,0-21.857,0-32.795,0c0-0.138,0-0.254,0-0.369c0-0.921-0.023-1.843,0.012-2.763
		c0.013-0.351,0.102-0.727,0.259-1.039c0.495-0.98,1.324-1.655,2.256-2.179c1.341-0.757,2.727-1.436,4.077-2.179
		c2.055-1.131,4.173-2.091,6.493-2.536c0.045-0.008,0.085-0.044,0.145-0.076c-1.095-1.233-1.699-2.713-2.355-4.167
		c-0.606-1.344-0.894-2.731-0.847-4.207c0.031-0.983-0.035-1.969-0.055-2.954c-0.015-0.74,0.016-1.474,0.255-2.189
		c0.67-2.005,1.974-3.323,4.072-3.785C18.811,11.129,19.257,11.078,19.698,11.006z"/>
</g>
</svg>
